<svg width="589" height="215" viewBox="0 0 589 215" fill="none" xmlns="http://www.w3.org/2000/svg">
<path d="M223.128 166.77V127.25C228.458 134.79 236.648 138.43 245.488 138.43C265.638 138.43 277.858 122.96 277.858 104.37C277.858 85.13 265.118 69.79 245.618 69.79C235.998 69.79 227.808 73.95 223.128 81.1V71.22H207.138V166.77H223.128ZM261.738 104.24C261.738 115.55 254.848 125.04 242.758 125.04C230.928 125.04 222.738 116.33 222.738 103.59C222.738 90.59 231.448 83.18 242.368 83.18C254.328 83.18 261.738 92.54 261.738 104.24ZM302.866 137V43.01H286.876V137H302.866ZM366.514 71.22V80.97C361.184 73.43 352.994 69.79 344.154 69.79C324.004 69.79 311.784 85.26 311.784 103.85C311.784 123.09 324.524 138.43 344.024 138.43C353.644 138.43 361.834 134.27 366.514 127.12V137H382.504V71.22H366.514ZM327.904 103.98C327.904 92.67 334.794 83.18 346.884 83.18C358.714 83.18 366.904 91.89 366.904 104.63C366.904 117.63 358.194 125.04 347.274 125.04C335.314 125.04 327.904 115.68 327.904 103.98ZM395.552 137H411.542V104.11C411.542 90.33 419.082 83.31 428.442 83.31C436.372 83.31 441.182 89.29 441.182 100.73V137H457.172V100.6C457.172 81.62 449.242 69.79 432.862 69.79C423.502 69.79 415.702 73.69 411.542 82.27V71.22H395.552V137ZM469.317 137H485.307V104.11C485.307 90.33 492.847 83.31 502.207 83.31C510.137 83.31 514.947 89.29 514.947 100.73V137H530.937V100.6C530.937 81.62 523.007 69.79 506.627 69.79C497.267 69.79 489.467 73.69 485.307 82.27V71.22H469.317V137ZM558.811 71.22H543.081V137H559.071V106.58C559.071 88.38 568.821 85.13 574.671 85.13C576.751 85.13 579.741 85.52 582.211 86.43V70.7C580.261 70.18 578.961 69.79 576.751 69.79C569.731 69.79 561.021 74.6 558.811 85.78V71.22Z" fill="white"/>
<circle cx="84" cy="107" r="77" stroke="white" stroke-width="14"/>
<mask id="mask0_11_33" style="mask-type:alpha" maskUnits="userSpaceOnUse" x="14" y="37" width="140" height="140">
<circle cx="84" cy="107" r="70" fill="#0E0E56"/>
</mask>
<g mask="url(#mask0_11_33)">
<path d="M127 134L87 91V103.061V118.031L98.3679 130.683C100.264 132.794 102.969 134 105.806 134H127Z" fill="#FFC634"/>
<path d="M39 196L39 98.7457C39 93.3053 41.2162 88.0998 45.1378 84.329L59 71L59 176.769L39 196Z" fill="#EF4583"/>
<path d="M74 59L74 169L87.0992 155.695C91.5 151.225 94 144.957 94 138.393L94 59C94 59 91 59 89.447 59L81.5 59C80.5 59 79.5 59 77 59C76 59 74.5 59 74 59Z" fill="#53DBB8"/>
</g>
<path d="M164.665 134C168.182 134 169.987 129.787 167.561 127.241L95.5063 51.6085C91.5625 47.4689 84.9569 47.4726 81.0179 51.6168L74 59L145.796 134H164.665Z" fill="#2CC4E7"/>
</svg>
